# xmcd
#
# Track frame offsets: 
#        150
#        11889
#        22951
#        33821
#        46105
#        57904
#        67311
#        77762
#        86958
#        98492
#        108747
#        119393
#        132826
#        145303
#        157607
#        175197
#        185701
#        195756
#        205864
#        217547
#        231195
#        245212
#        254798
#        268574
#        279910
#        292255
#        301771
#        315175
#        326203
#        337656
#
# Disc length: 4605 seconds
#
# Revision: 2
# Processed by: cddbd v1.5.2PL0 Copyright (c) Steve Scherf et al.
# Submitted via: ExactAudioCopyFreeDBPlugin 1.0
#
DISCID=a711fb1e
DTITLE=Various Artist - You're the Reason:  30 One Hit Wonders of US 
DTITLE=Country and Western
DYEAR=2014
DGENRE=Country
TTITLE0=Bobby Edwads - You're the Reason
TTITLE1=Ralph Emery - Hello, Fool
TTITLE2=The Fendermen - Mule Skinner Blues
TTITLE3=Sanford Clark - The Fool
TTITLE4=Gene Vincent and His Blue Caps - Be Bop A-Lula
TTITLE5=Allan Riddle - The Moon is Crying
TTITLE6=Ted Self - (Little Angel) Come Rock Me to Sleep
TTITLE7=Jimmy Edwards - Love Bug Crawl
TTITLE8=Charlie Ryan and The Timberline Riders - Hot Rod Lincoln
TTITLE9=Al Terry - Good Deal, Lucille
TTITLE10=Jimmy and Johnny - If You Don't Someone Else Will
TTITLE11=Vaughn Monroe - (Ghost) Riders in the Sky
TTITLE12=Walter Brennan - Old Rivers
TTITLE13=Jeanne Black - He'll Have to Stay
TTITLE14=Wink Martindale - Deck of Cards
TTITLE15=Johnny Hardy - In Memory of Johnny Horton
TTITLE16=Billy Jean Horton - Ocean of Tears
TTITLE17=The Springfields - Silver Threads and Golden Needles
TTITLE18=The Rooftop Singers - Walk Right In
TTITLE19=The Davis Sisters - I Forgot More Than You'll Ever Know
TTITLE20=Betty Cody - I Found Out More Than You'll Ever Know
TTITLE21=Betty Foley - Old Moon
TTITLE22=Earl Scott - Then a Tear Fell
TTITLE23=Carlie Phillips - I Guess I'll Never Learn
TTITLE24=Jo Ann Campbell - (I'm the Girl On) Wolverton Mountain
TTITLE25=Don Winters - Too Many Times
TTITLE26=Gene Woods - The Ballad of Wild River
TTITLE27=Vernon Stewart - The Way it Feels to Die
TTITLE28=Eddie Noack - Have Blues Will Travel
TTITLE29=Orville Couch - Hello Trouble
EXTD=YEAR: 2014
EXTT0=
EXTT1=
EXTT2=
EXTT3=
EXTT4=
EXTT5=
EXTT6=
EXTT7=
EXTT8=
EXTT9=
EXTT10=
EXTT11=
EXTT12=
EXTT13=
EXTT14=
EXTT15=
EXTT16=
EXTT17=
EXTT18=
EXTT19=
EXTT20=
EXTT21=
EXTT22=
EXTT23=
EXTT24=
EXTT25=
EXTT26=
EXTT27=
EXTT28=
EXTT29=
PLAYORDER=
